<svg xmlns="http://www.w3.org/2000/svg" viewBox="0 0 1003 786" role="img" aria-label="LitLab" preserveAspectRatio="xMidYMid meet">
  <path d="M 989.00 555.00 L 986.00 552.00 L 982.00 552.00 L 965.00 563.00 L 937.00 576.00 L 918.00 581.00 L 911.00 584.00 L 873.00 592.00 L 824.00 598.00 L 823.00 599.00 L 784.00 604.00 L 783.00 605.00 L 778.00 605.00 L 746.00 611.00 L 690.00 625.00 L 660.00 635.00 L 650.00 640.00 L 643.00 642.00 L 612.00 657.00 L 592.00 669.00 L 562.00 691.00 L 531.00 722.00 L 512.00 748.00 L 505.00 762.00 L 529.00 742.00 L 565.00 717.00 L 602.00 697.00 L 604.00 697.00 L 629.00 685.00 L 640.00 682.00 L 643.00 680.00 L 646.00 680.00 L 649.00 678.00 L 652.00 678.00 L 665.00 673.00 L 694.00 665.00 L 703.00 664.00 L 708.00 662.00 L 743.00 655.00 L 768.00 652.00 L 774.00 650.00 L 781.00 650.00 L 788.00 648.00 L 816.00 645.00 L 817.00 644.00 L 823.00 644.00 L 824.00 643.00 L 830.00 643.00 L 831.00 642.00 L 837.00 642.00 L 838.00 641.00 L 844.00 641.00 L 845.00 640.00 L 851.00 640.00 L 852.00 639.00 L 858.00 639.00 L 859.00 638.00 L 865.00 638.00 L 871.00 636.00 L 896.00 632.00 L 925.00 624.00 L 943.00 617.00 L 960.00 608.00 L 968.00 602.00 L 979.00 591.00 L 985.00 582.00 L 990.00 567.00 Z M 64.00 19.00 L 49.00 31.00 L 42.00 40.00 L 33.00 58.00 L 30.00 72.00 L 30.00 114.00 L 29.00 115.00 L 29.00 122.00 L 30.00 123.00 L 30.00 134.00 L 29.00 135.00 L 29.00 470.00 L 33.00 486.00 L 39.00 498.00 L 44.00 505.00 L 58.00 519.00 L 70.00 527.00 L 85.00 535.00 L 108.00 543.00 L 165.00 556.00 L 170.00 556.00 L 181.00 559.00 L 204.00 562.00 L 210.00 564.00 L 221.00 565.00 L 227.00 567.00 L 250.00 570.00 L 280.00 576.00 L 304.00 583.00 L 323.00 587.00 L 363.00 601.00 L 399.00 619.00 L 431.00 640.00 L 455.00 660.00 L 479.00 685.00 L 479.00 493.00 L 474.00 476.00 L 467.00 465.00 L 458.00 455.00 L 447.00 447.00 L 435.00 441.00 L 424.00 438.00 L 417.00 438.00 L 416.00 437.00 L 304.00 437.00 L 303.00 436.00 L 293.00 435.00 L 279.00 429.00 L 271.00 423.00 L 262.00 413.00 L 254.00 398.00 L 252.00 389.00 L 252.00 382.00 L 251.00 381.00 L 251.00 78.00 L 250.00 77.00 L 250.00 67.00 L 248.00 58.00 L 240.00 40.00 L 235.00 33.00 L 227.00 25.00 L 217.00 18.00 L 204.00 12.00 L 192.00 9.00 L 182.00 9.00 L 181.00 8.00 L 100.00 8.00 L 99.00 9.00 L 91.00 9.00 L 82.00 11.00 L 71.00 15.00 Z" fill="#141b27" fill-rule="evenodd"/>
  <path d="M 993.00 652.00 L 989.00 643.00 L 983.00 638.00 L 978.00 636.00 L 968.00 636.00 L 944.00 645.00 L 910.00 653.00 L 905.00 653.00 L 880.00 658.00 L 872.00 658.00 L 858.00 661.00 L 838.00 663.00 L 837.00 664.00 L 831.00 664.00 L 830.00 665.00 L 816.00 666.00 L 815.00 667.00 L 789.00 670.00 L 788.00 671.00 L 782.00 671.00 L 775.00 673.00 L 761.00 674.00 L 755.00 676.00 L 749.00 676.00 L 731.00 680.00 L 697.00 685.00 L 692.00 687.00 L 688.00 687.00 L 683.00 689.00 L 674.00 690.00 L 670.00 692.00 L 654.00 695.00 L 650.00 697.00 L 625.00 703.00 L 613.00 708.00 L 590.00 715.00 L 564.00 727.00 L 557.00 729.00 L 540.00 738.00 L 528.00 746.00 L 523.00 748.00 L 504.00 764.00 L 503.00 777.00 L 518.00 767.00 L 532.00 760.00 L 550.00 753.00 L 586.00 743.00 L 605.00 740.00 L 615.00 737.00 L 638.00 734.00 L 656.00 730.00 L 720.00 722.00 L 721.00 721.00 L 745.00 719.00 L 746.00 718.00 L 778.00 715.00 L 787.00 713.00 L 815.00 711.00 L 816.00 710.00 L 849.00 707.00 L 858.00 705.00 L 877.00 704.00 L 885.00 702.00 L 893.00 702.00 L 894.00 701.00 L 906.00 700.00 L 942.00 693.00 L 965.00 686.00 L 982.00 677.00 L 989.00 670.00 L 992.00 664.00 Z M 13.00 554.00 L 12.00 565.00 L 13.00 566.00 L 14.00 576.00 L 17.00 584.00 L 23.00 593.00 L 39.00 608.00 L 62.00 620.00 L 90.00 629.00 L 122.00 636.00 L 127.00 636.00 L 140.00 639.00 L 147.00 639.00 L 148.00 640.00 L 155.00 640.00 L 161.00 642.00 L 169.00 642.00 L 175.00 644.00 L 188.00 645.00 L 195.00 647.00 L 202.00 647.00 L 203.00 648.00 L 238.00 652.00 L 275.00 659.00 L 281.00 659.00 L 290.00 662.00 L 305.00 664.00 L 342.00 673.00 L 375.00 684.00 L 386.00 690.00 L 393.00 692.00 L 403.00 698.00 L 405.00 698.00 L 436.00 717.00 L 448.00 727.00 L 446.00 728.00 L 439.00 724.00 L 405.00 710.00 L 377.00 701.00 L 346.00 693.00 L 301.00 684.00 L 275.00 681.00 L 256.00 677.00 L 250.00 677.00 L 249.00 676.00 L 243.00 676.00 L 242.00 675.00 L 236.00 675.00 L 235.00 674.00 L 229.00 674.00 L 214.00 671.00 L 207.00 671.00 L 192.00 668.00 L 177.00 667.00 L 162.00 664.00 L 155.00 664.00 L 142.00 661.00 L 136.00 661.00 L 129.00 659.00 L 98.00 655.00 L 54.00 644.00 L 33.00 636.00 L 25.00 636.00 L 14.00 642.00 L 10.00 648.00 L 8.00 655.00 L 9.00 663.00 L 14.00 673.00 L 19.00 678.00 L 29.00 684.00 L 48.00 691.00 L 63.00 695.00 L 73.00 696.00 L 84.00 699.00 L 97.00 700.00 L 98.00 701.00 L 106.00 701.00 L 107.00 702.00 L 131.00 704.00 L 132.00 705.00 L 152.00 706.00 L 153.00 707.00 L 162.00 707.00 L 163.00 708.00 L 172.00 708.00 L 173.00 709.00 L 183.00 709.00 L 184.00 710.00 L 196.00 710.00 L 197.00 711.00 L 207.00 711.00 L 208.00 712.00 L 234.00 713.00 L 235.00 714.00 L 244.00 714.00 L 245.00 715.00 L 276.00 717.00 L 277.00 718.00 L 317.00 722.00 L 318.00 723.00 L 332.00 724.00 L 344.00 727.00 L 350.00 727.00 L 356.00 729.00 L 362.00 729.00 L 414.00 741.00 L 442.00 750.00 L 450.00 754.00 L 460.00 757.00 L 480.00 767.00 L 495.00 777.00 L 494.00 765.00 L 487.00 751.00 L 478.00 737.00 L 464.00 719.00 L 446.00 700.00 L 426.00 683.00 L 406.00 669.00 L 391.00 660.00 L 361.00 645.00 L 328.00 632.00 L 325.00 632.00 L 318.00 629.00 L 315.00 629.00 L 308.00 626.00 L 282.00 619.00 L 248.00 613.00 L 238.00 610.00 L 222.00 608.00 L 211.00 605.00 L 180.00 601.00 L 168.00 598.00 L 162.00 598.00 L 150.00 595.00 L 139.00 594.00 L 133.00 592.00 L 127.00 592.00 L 101.00 586.00 L 66.00 575.00 L 45.00 565.00 L 20.00 549.00 L 16.00 550.00 Z M 703.00 10.00 L 692.00 9.00 L 691.00 8.00 L 601.00 8.00 L 600.00 9.00 L 589.00 10.00 L 570.00 18.00 L 557.00 27.00 L 543.00 43.00 L 534.00 64.00 L 532.00 73.00 L 532.00 683.00 L 554.00 661.00 L 581.00 639.00 L 613.00 619.00 L 651.00 601.00 L 693.00 587.00 L 739.00 576.00 L 750.00 575.00 L 761.00 572.00 L 773.00 571.00 L 786.00 568.00 L 793.00 568.00 L 794.00 567.00 L 808.00 566.00 L 829.00 562.00 L 863.00 558.00 L 937.00 543.00 L 961.00 535.00 L 976.00 528.00 L 987.00 519.00 L 994.00 506.00 L 994.00 490.00 L 991.00 482.00 L 986.00 475.00 L 980.00 470.00 L 968.00 464.00 L 958.00 462.00 L 802.00 462.00 L 791.00 459.00 L 781.00 454.00 L 773.00 448.00 L 763.00 436.00 L 758.00 426.00 L 755.00 414.00 L 755.00 73.00 L 754.00 72.00 L 754.00 65.00 L 750.00 51.00 L 745.00 41.00 L 736.00 29.00 L 720.00 17.00 Z" fill="#532cfc" fill-rule="evenodd"/>
</svg>
